<svg width="28" height="39" viewBox="0 0 28 39" fill="none" xmlns="http://www.w3.org/2000/svg">
<path d="M11.5521 0.020428C11.6145 0.0107247 11.6773 0.0035749 11.7411 0C11.8555 0.395793 11.8856 0.822739 12.0961 1.18534C12.5577 1.99429 13.2452 2.64441 13.7181 3.44621C14.0026 3.93597 14.0633 4.55443 13.8596 5.08556C13.5307 5.95477 12.9934 6.72031 12.5082 7.50679C12.258 7.91382 11.949 8.27999 11.6931 8.68344C11.5067 9.00161 11.259 9.28965 10.9377 9.47656C10.8724 9.07566 11.0184 8.65127 10.8479 8.2662C10.3989 7.3163 9.43777 6.71929 9.0297 5.74436C8.8867 5.28933 8.93369 4.77863 9.14002 4.34964C9.73296 3.13111 10.4306 1.96722 11.1088 0.795161C11.2605 0.5393 11.3453 0.240029 11.5521 0.020428Z" fill="#eb5459"/>
<path d="M14.9577 8.34698C15.7585 8.24535 16.6104 8.24024 17.3607 8.57577C18.6507 9.12887 19.6283 10.3556 19.8688 11.7396C20.0634 12.4735 20.1119 13.2385 20.0716 13.9949C20.0598 14.7788 19.8708 15.5515 19.6007 16.2844C19.2064 17.3293 18.6017 18.2956 17.83 19.1035C17.3407 19.5866 16.875 20.0984 16.3224 20.5115C15.6247 21.0457 14.8137 21.465 13.9347 21.582C13.496 21.6392 13.0614 21.7653 12.6156 21.7403C11.4184 21.6479 10.2422 21.3629 9.11355 20.9594C8.26881 20.6484 7.41132 20.3767 6.55892 20.0887C5.94402 19.9365 5.33422 19.7189 4.69429 19.7123C4.40522 19.7077 4.22902 19.9819 4.14015 20.2225C3.87713 20.9747 3.67795 21.7469 3.47673 22.5171C3.37356 22.9359 3.24231 23.348 3.17694 23.7755C3.10033 24.2565 3.0513 24.7417 2.99716 25.2254C2.91136 26.3826 3.08654 27.5562 3.49307 28.642C3.76478 29.3524 4.24281 30.0041 4.91134 30.3856C5.83217 30.9616 6.98742 30.9376 8.01448 30.7129C9.03949 30.4514 10.0451 30.1036 10.994 29.6343C11.8413 29.2196 12.6314 28.7002 13.4087 28.1681C15.0144 27.0634 16.6308 25.9751 18.2554 24.898C19.165 24.3097 20.116 23.7847 21.1027 23.3368C21.5547 23.1299 22.0383 23.0079 22.5184 22.8843C22.8662 22.8077 23.2554 22.823 23.5633 23.0191C23.7457 23.1386 23.8989 23.2959 24.072 23.4277C24.3376 23.6452 24.6747 23.7596 24.9198 24.0048C25.1547 24.2433 25.4086 24.539 25.3544 24.9C24.8825 24.9409 24.4162 24.7586 23.9459 24.8551C23.2682 24.9389 22.6686 25.2846 22.0695 25.5875C21.5506 25.8479 21.0807 26.1926 20.6022 26.518C19.8959 26.9991 19.189 27.4817 18.5282 28.0246C16.8755 29.2962 15.3173 30.6899 13.6069 31.8865C12.8198 32.4371 12.0129 32.9605 11.1804 33.4411C10.1912 33.9651 9.17943 34.4814 8.08189 34.7368C7.04717 34.9947 5.95576 35.1913 4.89704 34.9595C4.20042 34.8149 3.46039 34.6535 2.91698 34.1622C2.2413 33.5346 1.88686 32.6531 1.61975 31.7905C1.47266 31.1623 1.32047 30.5275 1.32047 29.8784C1.3266 29.5184 1.2219 29.1609 1.27348 28.8013C1.36388 28.262 1.28217 27.71 1.38431 27.1722C1.50893 26.5491 1.56357 25.9148 1.69381 25.2928C1.85877 24.6212 1.99564 23.942 2.19176 23.2775C2.41494 22.4921 2.67388 21.7173 2.93485 20.9441C3.06356 20.5595 3.33424 20.2102 3.30921 19.7863C2.96601 19.7092 2.61668 19.8032 2.29492 19.9212C1.98389 20.0401 1.66367 20.1402 1.37256 20.3062C1.02068 20.4947 0.704541 20.7403 0.37717 20.9671C0.278601 21.0386 0.103423 21.0825 0.0303903 20.9543C-0.0268103 20.8343 0.0058756 20.6939 0.0533726 20.5769C0.444584 19.581 1.22088 18.7629 2.14681 18.2404C2.48491 18.0831 2.75764 17.8232 2.99614 17.5418C3.37561 17.098 3.82657 16.7098 4.35006 16.4458C4.60593 16.3058 4.90317 16.2492 5.13861 16.0694C5.35873 15.9167 5.52114 15.6976 5.65189 15.4668C6.85463 13.499 8.40211 11.7197 10.2938 10.3878C10.6442 10.0916 11.0589 9.89136 11.4623 9.67941C12.543 9.05022 13.711 8.52624 14.9577 8.34698ZM11.4138 11.2698C10.6237 11.5757 9.9261 12.0649 9.2545 12.5721C8.65798 13.044 8.13603 13.5996 7.60539 14.142C7.23665 14.5296 6.95933 14.9918 6.60285 15.3896C6.47057 15.5291 6.5242 15.7323 6.52981 15.9039C7.19477 15.9187 7.86024 15.9652 8.51907 16.0582C10.4624 16.4264 12.278 17.2517 14.1932 17.7271C14.7095 17.889 15.2514 17.9263 15.7841 18.0029C16.161 18.0571 16.5404 17.9851 16.9112 17.9192C17.2907 17.8507 17.5067 17.5024 17.7713 17.2588C18.2493 16.7977 18.4597 16.1245 18.4975 15.4759C18.4761 14.883 18.5465 14.284 18.4505 13.6951C18.2973 13.0639 17.9419 12.4893 17.4945 12.0241C17.164 11.7187 16.8198 11.4153 16.4092 11.2233C15.8704 10.9878 15.2994 10.8203 14.7141 10.7611C13.5941 10.6584 12.4557 10.8525 11.4138 11.2698Z" fill="#eb5459"/>
<path d="M24.2696 26.0631C24.7712 25.8195 25.3468 25.7781 25.8943 25.8414C26.1486 25.8813 26.335 26.0748 26.5127 26.2449C26.8079 26.5309 27.1828 26.7301 27.4397 27.0565C27.6149 27.2863 27.8105 27.5386 27.7814 27.8466C27.715 27.8746 27.6517 27.9227 27.5761 27.913C27.3376 27.9068 27.1006 27.8675 26.8616 27.8762C26.3958 27.89 25.9387 28.0233 25.523 28.2301C24.6133 28.6663 23.8049 29.2817 23.0352 29.9273C22.3595 30.51 21.6863 31.0979 21.0638 31.7378C20.2742 32.532 19.4785 33.3201 18.6465 34.0708C18.0147 34.6985 17.361 35.3043 16.6883 35.8885C16.0229 36.4672 15.292 36.9662 14.5285 37.4059C14.0096 37.7011 13.4539 37.9432 12.8666 38.0627C12.0101 38.2068 11.1183 38.2757 10.269 38.05C9.99421 37.9815 9.7276 37.8845 9.47071 37.7665C9.04425 37.5689 8.55701 37.5755 8.12595 37.3906C7.52278 37.1409 6.94208 36.765 6.58917 36.2021C6.4957 36.0658 6.51409 35.8947 6.51715 35.7389C6.84351 35.7307 7.13412 35.8896 7.44515 35.959C8.49572 36.0974 9.55344 35.865 10.5443 35.5254C10.9089 35.3942 11.2823 35.2833 11.6336 35.1178C12.2123 34.8528 12.7516 34.5131 13.3012 34.1944C14.2113 33.6669 15.0341 33.0044 15.8329 32.3241C17.3028 31.0499 18.7854 29.7894 20.3196 28.5927C21.5377 27.6106 22.812 26.6611 24.2696 26.0631Z" fill="#eb5459"/>
</svg>
