<svg width="466" height="230" viewBox="0 0 466 230" fill="none" xmlns="http://www.w3.org/2000/svg">
<circle r="105.5" transform="matrix(1 0 0 -1 115 115)" stroke="#F73013" stroke-width="19"/>
<g filter="url(#filter0_d_643_6212)">
<rect x="70" y="92" width="364" height="77" rx="10" fill="#1ECAD3"/>
<rect x="70.5" y="92.5" width="363" height="76" rx="9.5" stroke="#1ECAD3"/>
</g>
<path d="M176.528 133.39H174.288L174.038 122.36H176.788L176.528 133.39ZM175.358 139.45L173.568 137.63L175.428 135.78L177.228 137.63L175.358 139.45ZM191.116 138.15H190.836C190.316 138.15 189.816 138.1 189.336 138C188.856 137.907 188.413 137.763 188.006 137.57C187.599 137.37 187.236 137.117 186.916 136.81C186.603 136.503 186.346 136.14 186.146 135.72C185.986 135.967 185.779 136.187 185.526 136.38C185.279 136.567 185.009 136.723 184.716 136.85C184.423 136.977 184.119 137.073 183.806 137.14C183.493 137.2 183.193 137.23 182.906 137.23C182.373 137.23 181.866 137.137 181.386 136.95C180.913 136.763 180.496 136.5 180.136 136.16C179.776 135.813 179.489 135.393 179.276 134.9C179.069 134.407 178.966 133.85 178.966 133.23C178.966 132.51 179.103 131.877 179.376 131.33C179.649 130.783 180.013 130.307 180.466 129.9C180.919 129.487 181.439 129.137 182.026 128.85C182.619 128.557 183.233 128.303 183.866 128.09L183.626 127.13L186.066 126.56L187.886 133.64C187.993 134.073 188.166 134.423 188.406 134.69C188.646 134.95 188.906 135.153 189.186 135.3C189.473 135.44 189.763 135.537 190.056 135.59C190.356 135.637 190.616 135.66 190.836 135.66H191.116V138.15ZM184.956 133.18C184.989 133.04 185.006 132.897 185.006 132.75C185.006 132.703 184.999 132.623 184.986 132.51C184.979 132.39 184.953 132.223 184.906 132.01C184.859 131.797 184.796 131.567 184.716 131.32C184.643 131.073 184.563 130.797 184.476 130.49C183.409 130.83 182.599 131.217 182.046 131.65C181.499 132.077 181.226 132.607 181.226 133.24C181.226 133.487 181.279 133.707 181.386 133.9C181.499 134.093 181.643 134.253 181.816 134.38C181.996 134.507 182.196 134.597 182.416 134.65C182.556 134.69 182.696 134.71 182.836 134.71C182.909 134.71 182.986 134.703 183.066 134.69C183.566 134.617 183.983 134.47 184.316 134.25C184.649 134.023 184.863 133.667 184.956 133.18ZM198.476 138.13C197.256 138.13 196.289 137.813 195.576 137.18C195.209 137.52 194.802 137.767 194.356 137.92C193.909 138.073 193.449 138.15 192.976 138.15H190.726V135.66H192.976C193.056 135.66 193.169 135.647 193.316 135.62C193.469 135.593 193.619 135.53 193.766 135.43C193.919 135.323 194.052 135.17 194.166 134.97C194.279 134.763 194.336 134.48 194.336 134.12V131.24H196.826V134.08C196.826 134.627 196.952 135.027 197.206 135.28C197.466 135.527 197.889 135.65 198.476 135.65C198.556 135.65 198.669 135.637 198.816 135.61C198.969 135.577 199.119 135.507 199.266 135.4C199.419 135.293 199.552 135.137 199.666 134.93C199.779 134.717 199.836 134.433 199.836 134.08V131.24H202.316V134.08C202.316 134.627 202.446 135.03 202.706 135.29C202.972 135.543 203.402 135.67 203.996 135.67C204.082 135.67 204.199 135.653 204.346 135.62C204.499 135.58 204.649 135.507 204.796 135.4C204.942 135.287 205.069 135.127 205.176 134.92C205.282 134.713 205.336 134.433 205.336 134.08C205.336 133.933 205.322 133.757 205.296 133.55C205.276 133.343 205.246 133.127 205.206 132.9C205.172 132.667 205.132 132.433 205.086 132.2C205.039 131.96 204.992 131.733 204.946 131.52C204.899 131.307 204.852 131.113 204.806 130.94C204.766 130.767 204.732 130.63 204.706 130.53L207.056 129.76C207.069 129.807 207.096 129.913 207.136 130.08C207.176 130.247 207.222 130.453 207.276 130.7C207.336 130.947 207.396 131.22 207.456 131.52C207.516 131.82 207.569 132.123 207.616 132.43C207.669 132.73 207.712 133.027 207.746 133.32C207.779 133.607 207.796 133.86 207.796 134.08C207.796 134.76 207.682 135.357 207.456 135.87C207.236 136.377 206.946 136.8 206.586 137.14C206.226 137.473 205.819 137.723 205.366 137.89C204.912 138.057 204.456 138.143 203.996 138.15C202.756 138.15 201.776 137.823 201.056 137.17C200.689 137.51 200.282 137.757 199.836 137.91C199.396 138.057 198.942 138.13 198.476 138.13ZM200.736 126.82L199.036 128.54L197.336 126.84L199.036 125.12L200.736 126.82ZM205.026 126.78L203.346 128.48L201.596 126.8L203.316 125.08L205.026 126.78ZM202.816 123.96L201.216 125.56L199.636 123.98L201.236 122.38L202.816 123.96ZM214.34 137.54C214.3 138.46 214.13 139.287 213.83 140.02C213.53 140.76 213.117 141.387 212.59 141.9C212.063 142.42 211.427 142.82 210.68 143.1C209.933 143.38 209.09 143.52 208.15 143.52H206.91V141.03H208.15C208.79 141.03 209.343 140.963 209.81 140.83C210.277 140.697 210.66 140.483 210.96 140.19C211.26 139.897 211.483 139.513 211.63 139.04C211.777 138.573 211.85 138.003 211.85 137.33V131.24H214.34V137.54ZM211.18 126.91L212.98 125.09L214.82 126.93L213 128.75L211.18 126.91ZM223.45 137.54C223.41 138.46 223.24 139.287 222.94 140.02C222.64 140.76 222.226 141.387 221.7 141.9C221.173 142.42 220.536 142.82 219.79 143.1C219.043 143.38 218.2 143.52 217.26 143.52H216.02V141.03H217.26C217.9 141.03 218.453 140.963 218.92 140.83C219.386 140.697 219.77 140.483 220.07 140.19C220.37 139.897 220.593 139.513 220.74 139.04C220.886 138.573 220.96 138.003 220.96 137.33V131.24H223.45V137.54ZM228.459 138.15H225.969V123.73H228.459V138.15ZM243.978 138.15C243.244 138.15 242.614 138.103 242.088 138.01C241.561 137.923 241.118 137.793 240.758 137.62C240.398 137.44 240.108 137.213 239.888 136.94C239.674 136.667 239.511 136.347 239.398 135.98C239.284 135.613 239.208 135.2 239.168 134.74C239.134 134.273 239.118 133.76 239.118 133.2V123.73H241.608V133.2C241.608 133.733 241.624 134.16 241.658 134.48C241.698 134.8 241.794 135.05 241.948 135.23C242.108 135.403 242.344 135.52 242.658 135.58C242.978 135.633 243.418 135.66 243.978 135.66V138.15ZM249.357 129.75C249.371 129.797 249.397 129.907 249.437 130.08C249.484 130.253 249.534 130.467 249.587 130.72C249.641 130.967 249.694 131.243 249.747 131.55C249.807 131.857 249.861 132.167 249.907 132.48C249.961 132.787 250.001 133.087 250.027 133.38C250.061 133.673 250.077 133.93 250.077 134.15C250.077 134.837 249.964 135.433 249.737 135.94C249.511 136.44 249.214 136.853 248.847 137.18C248.481 137.507 248.067 137.75 247.607 137.91C247.154 138.07 246.697 138.15 246.237 138.15H243.577V135.66H246.307C246.387 135.66 246.501 135.65 246.647 135.63C246.801 135.603 246.951 135.54 247.097 135.44C247.251 135.34 247.384 135.19 247.497 134.99C247.611 134.783 247.667 134.503 247.667 134.15C247.667 134.003 247.654 133.827 247.627 133.62C247.607 133.407 247.577 133.18 247.537 132.94C247.497 132.7 247.451 132.457 247.397 132.21C247.351 131.957 247.304 131.72 247.257 131.5C247.211 131.273 247.164 131.07 247.117 130.89C247.071 130.703 247.034 130.56 247.007 130.46L249.357 129.75ZM244.987 141.63L246.787 139.81L248.627 141.65L246.807 143.47L244.987 141.63ZM277.959 131.24V134.17C277.959 134.403 277.992 134.603 278.059 134.77C278.132 134.93 278.222 135.067 278.329 135.18C278.442 135.287 278.565 135.373 278.699 135.44C278.832 135.5 278.962 135.547 279.089 135.58C279.215 135.613 279.325 135.637 279.419 135.65C279.519 135.657 279.592 135.66 279.639 135.66H280.259V138.15H279.639C279.412 138.15 279.169 138.133 278.909 138.1C278.655 138.073 278.399 138.027 278.139 137.96C277.885 137.887 277.639 137.79 277.399 137.67C277.159 137.55 276.945 137.403 276.759 137.23C276.032 137.837 275.045 138.143 273.799 138.15H262.259C261.765 138.15 261.299 138.067 260.859 137.9C260.419 137.733 260.029 137.49 259.689 137.17C259.555 137.043 259.415 136.89 259.269 136.71C259.129 136.53 259.002 136.317 258.889 136.07C258.775 135.823 258.682 135.547 258.609 135.24C258.535 134.927 258.499 134.577 258.499 134.19C258.499 133.857 258.532 133.497 258.599 133.11C258.665 132.717 258.739 132.347 258.819 132C258.905 131.653 258.985 131.353 259.059 131.1C259.132 130.847 259.179 130.69 259.199 130.63L260.389 131.01L261.569 131.38C261.509 131.56 261.445 131.777 261.379 132.03C261.312 132.277 261.249 132.533 261.189 132.8C261.129 133.067 261.079 133.323 261.039 133.57C260.999 133.817 260.979 134.03 260.979 134.21C260.979 134.53 261.022 134.79 261.109 134.99C261.202 135.183 261.312 135.333 261.439 135.44C261.572 135.54 261.715 135.607 261.869 135.64C262.022 135.673 262.159 135.69 262.279 135.69H273.729C274.095 135.69 274.409 135.657 274.669 135.59C274.929 135.517 275.122 135.413 275.249 135.28C275.402 135.107 275.479 134.857 275.479 134.53V131.24H277.959ZM270.239 130.4L268.559 128.7L270.219 126.98L271.939 128.7L270.239 130.4ZM266.049 130.41L264.369 128.71L266.019 126.99L267.739 128.71L266.049 130.41ZM287.273 129.75C287.286 129.797 287.313 129.907 287.353 130.08C287.4 130.253 287.45 130.467 287.503 130.72C287.556 130.967 287.61 131.243 287.663 131.55C287.723 131.857 287.776 132.167 287.823 132.48C287.876 132.787 287.916 133.087 287.943 133.38C287.976 133.673 287.993 133.93 287.993 134.15C287.993 134.837 287.88 135.433 287.653 135.94C287.426 136.44 287.13 136.853 286.763 137.18C286.396 137.507 285.983 137.75 285.523 137.91C285.07 138.07 284.613 138.15 284.153 138.15H279.843V135.66H284.223C284.303 135.66 284.416 135.65 284.563 135.63C284.716 135.603 284.866 135.54 285.013 135.44C285.166 135.34 285.3 135.19 285.413 134.99C285.526 134.783 285.583 134.503 285.583 134.15C285.583 134.003 285.57 133.827 285.543 133.62C285.523 133.407 285.493 133.18 285.453 132.94C285.413 132.7 285.366 132.457 285.313 132.21C285.266 131.957 285.22 131.72 285.173 131.5C285.126 131.273 285.08 131.07 285.033 130.89C284.986 130.703 284.95 130.56 284.923 130.46L287.273 129.75ZM286.333 127.8L284.653 126.1L286.313 124.38L288.033 126.1L286.333 127.8ZM282.143 127.81L280.463 126.11L282.113 124.39L283.833 126.11L282.143 127.81ZM291.417 141.03C291.95 141.03 292.423 141.01 292.837 140.97C293.257 140.937 293.627 140.883 293.947 140.81C294.273 140.743 294.557 140.653 294.797 140.54C295.043 140.433 295.257 140.303 295.437 140.15C295.717 139.923 295.927 139.66 296.067 139.36C296.213 139.06 296.3 138.657 296.327 138.15H294.787C294.453 138.15 294.113 138.123 293.767 138.07C293.42 138.017 293.087 137.927 292.767 137.8C292.447 137.667 292.143 137.497 291.857 137.29C291.577 137.083 291.33 136.83 291.117 136.53C290.91 136.223 290.743 135.863 290.617 135.45C290.497 135.037 290.437 134.563 290.437 134.03C290.437 133.57 290.477 133.163 290.557 132.81C290.637 132.45 290.737 132.133 290.857 131.86C290.983 131.587 291.123 131.35 291.277 131.15C291.43 130.943 291.577 130.763 291.717 130.61C292.117 130.21 292.57 129.903 293.077 129.69C293.583 129.47 294.13 129.36 294.717 129.36C295.443 129.36 296.063 129.487 296.577 129.74C297.097 129.987 297.52 130.33 297.847 130.77C298.18 131.21 298.423 131.733 298.577 132.34C298.73 132.94 298.807 133.593 298.807 134.3V135.66H300.507V138.15H298.797C298.77 139.063 298.607 139.833 298.307 140.46C298.013 141.087 297.573 141.633 296.987 142.1C296.68 142.34 296.347 142.547 295.987 142.72C295.627 142.9 295.223 143.05 294.777 143.17C294.33 143.29 293.83 143.377 293.277 143.43C292.73 143.49 292.11 143.52 291.417 143.52V141.03ZM294.717 131.85C294.15 131.85 293.7 132.027 293.367 132.38C293.033 132.733 292.867 133.283 292.867 134.03C292.867 134.323 292.923 134.573 293.037 134.78C293.157 134.987 293.307 135.157 293.487 135.29C293.673 135.417 293.88 135.51 294.107 135.57C294.333 135.63 294.56 135.66 294.787 135.66H296.327V134.3C296.327 133.92 296.297 133.597 296.237 133.33C296.177 133.057 296.097 132.83 295.997 132.65C295.903 132.47 295.793 132.327 295.667 132.22C295.547 132.113 295.427 132.033 295.307 131.98C295.193 131.927 295.083 131.893 294.977 131.88C294.87 131.86 294.783 131.85 294.717 131.85ZM300.017 138.15V135.66H302.857C302.69 135.427 302.56 135.197 302.467 134.97C302.373 134.743 302.303 134.53 302.257 134.33C302.21 134.123 302.18 133.93 302.167 133.75C302.16 133.563 302.157 133.4 302.157 133.26C302.157 132.667 302.27 132.117 302.497 131.61C302.723 131.103 303.03 130.663 303.417 130.29C303.81 129.917 304.263 129.623 304.777 129.41C305.297 129.197 305.847 129.09 306.427 129.09C306.76 129.09 307.067 129.12 307.347 129.18C307.627 129.233 307.91 129.32 308.197 129.44C308.49 129.553 308.8 129.703 309.127 129.89C309.46 130.07 309.837 130.283 310.257 130.53L309.007 132.66C308.833 132.547 308.64 132.427 308.427 132.3C308.213 132.173 307.99 132.057 307.757 131.95C307.53 131.843 307.3 131.757 307.067 131.69C306.84 131.617 306.627 131.58 306.427 131.58C306.207 131.58 305.98 131.617 305.747 131.69C305.52 131.763 305.313 131.87 305.127 132.01C304.94 132.15 304.787 132.327 304.667 132.54C304.547 132.747 304.487 132.987 304.487 133.26C304.487 133.34 304.497 133.433 304.517 133.54C304.543 133.647 304.587 133.767 304.647 133.9C304.707 134.027 304.79 134.16 304.897 134.3C305.01 134.44 305.153 134.583 305.327 134.73H305.317C305.717 135.057 306.253 135.293 306.927 135.44C307.607 135.587 308.4 135.66 309.307 135.66H310.407V138.15H300.017ZM317.269 138.16C317.016 138.16 316.766 138.147 316.519 138.12C316.272 138.093 316.022 138.057 315.769 138.01C315.516 137.963 315.256 137.907 314.989 137.84C314.722 137.767 314.442 137.687 314.149 137.6L312.959 137.24L313.679 134.84C314.259 135.04 314.859 135.217 315.479 135.37C316.106 135.523 316.696 135.623 317.249 135.67C317.429 135.683 317.602 135.69 317.769 135.69C318.102 135.69 318.436 135.653 318.769 135.58C319.109 135.507 319.349 135.323 319.489 135.03C319.516 134.977 319.529 134.913 319.529 134.84C319.529 134.793 319.516 134.72 319.489 134.62C319.462 134.52 319.396 134.393 319.289 134.24L315.559 128.8L317.659 127.44L318.339 128.49C318.339 128.497 318.349 128.517 318.369 128.55C318.396 128.583 318.442 128.653 318.509 128.76C318.582 128.867 318.682 129.02 318.809 129.22C318.942 129.413 319.116 129.67 319.329 129.99C319.542 130.31 319.802 130.707 320.109 131.18C320.422 131.647 320.796 132.207 321.229 132.86C321.569 133.373 321.779 133.903 321.859 134.45C321.879 134.59 321.889 134.727 321.889 134.86C321.889 135.26 321.809 135.643 321.649 136.01C321.536 136.277 321.382 136.523 321.189 136.75C321.002 136.97 320.782 137.167 320.529 137.34C320.056 137.667 319.486 137.89 318.819 138.01C318.259 138.11 317.742 138.16 317.269 138.16ZM341.57 138.15H340.76C339.873 138.15 339.027 137.76 338.22 136.98C338 137.24 337.737 137.457 337.43 137.63C337.13 137.797 336.807 137.93 336.46 138.03C336.113 138.13 335.76 138.2 335.4 138.24C335.047 138.28 334.707 138.3 334.38 138.3C334.127 138.3 333.87 138.283 333.61 138.25C333.35 138.223 333.053 138.173 332.72 138.1C332.393 138.033 332.017 137.943 331.59 137.83C331.163 137.71 330.653 137.56 330.06 137.38L330.78 134.99C331.187 135.15 331.607 135.293 332.04 135.42C332.473 135.54 332.897 135.64 333.31 135.72C333.723 135.793 334.12 135.84 334.5 135.86C334.653 135.873 334.8 135.88 334.94 135.88C335.147 135.88 335.37 135.863 335.61 135.83C335.85 135.797 336.073 135.727 336.28 135.62C336.493 135.507 336.637 135.357 336.71 135.17C336.743 135.09 336.76 135.017 336.76 134.95C336.76 134.89 336.74 134.817 336.7 134.73C336.667 134.643 336.61 134.54 336.53 134.42C336.45 134.293 336.347 134.13 336.22 133.93L332.67 128.94L334.77 127.59L338.34 133C338.533 133.293 338.737 133.597 338.95 133.91C339.163 134.223 339.377 134.51 339.59 134.77C339.803 135.023 340.01 135.233 340.21 135.4C340.41 135.567 340.593 135.65 340.76 135.65H341.57V138.15ZM345.519 135.66C345.653 135.66 345.753 135.697 345.819 135.77C345.893 135.837 345.929 135.927 345.929 136.04V137.75C345.929 137.897 345.893 138 345.819 138.06C345.753 138.12 345.653 138.15 345.519 138.15H341.339C341.193 138.15 341.089 138.12 341.029 138.06C340.969 138 340.939 137.897 340.939 137.75V136.04C340.939 135.927 340.969 135.837 341.029 135.77C341.089 135.697 341.193 135.66 341.339 135.66H345.519ZM345.306 138.15V135.66H351.156C351.263 135.66 351.409 135.657 351.596 135.65C351.783 135.637 351.966 135.61 352.146 135.57C352.326 135.523 352.479 135.46 352.606 135.38C352.739 135.293 352.806 135.177 352.806 135.03C352.806 134.743 352.696 134.397 352.476 133.99C352.263 133.583 351.986 133.15 351.646 132.69C351.306 132.23 350.923 131.767 350.496 131.3C350.076 130.827 349.656 130.383 349.236 129.97C348.823 129.55 348.433 129.18 348.066 128.86C347.699 128.54 347.406 128.3 347.186 128.14L347.386 125.88L356.086 121.9L356.996 124.08L349.676 127.31C349.929 127.557 350.213 127.837 350.526 128.15C350.846 128.463 351.173 128.797 351.506 129.15C351.839 129.497 352.169 129.86 352.496 130.24C352.829 130.613 353.139 130.99 353.426 131.37C353.719 131.743 353.979 132.11 354.206 132.47C354.433 132.83 354.609 133.17 354.736 133.49C354.849 133.77 354.929 134.04 354.976 134.3C355.023 134.56 355.046 134.797 355.046 135.01C355.046 135.277 355.019 135.51 354.966 135.71C354.919 135.91 354.866 136.08 354.806 136.22C354.726 136.4 354.603 136.603 354.436 136.83C354.269 137.057 354.036 137.267 353.736 137.46C353.443 137.653 353.069 137.817 352.616 137.95C352.169 138.083 351.626 138.15 350.986 138.15H345.306Z" fill="white"/>
<path d="M396.723 131.427C396.216 131.427 395.789 131.04 395.723 130.533C395.403 127.52 393.776 124.787 391.269 123.053C390.816 122.733 390.709 122.12 391.016 121.667C391.336 121.213 391.963 121.107 392.403 121.413C395.389 123.48 397.309 126.733 397.696 130.32C397.749 130.867 397.363 131.36 396.803 131.427C396.789 131.427 396.749 131.427 396.723 131.427Z" fill="white"/>
<path d="M373.883 131.493C373.843 131.493 373.816 131.493 373.776 131.493C373.229 131.427 372.829 130.933 372.883 130.387C373.243 126.8 375.149 123.56 378.096 121.467C378.549 121.147 379.176 121.253 379.496 121.707C379.816 122.16 379.709 122.787 379.256 123.107C376.776 124.853 375.176 127.587 374.869 130.6C374.829 131.107 374.389 131.493 373.883 131.493Z" fill="white"/>
<path d="M385.31 144.147C383.336 144.147 381.456 143.693 379.696 142.813C379.203 142.56 379.003 141.96 379.256 141.467C379.51 140.973 380.11 140.773 380.603 141.027C383.483 142.48 386.95 142.507 389.856 141.107C390.35 140.867 390.95 141.08 391.19 141.573C391.43 142.067 391.216 142.667 390.723 142.907C389.016 143.733 387.203 144.147 385.31 144.147Z" fill="white"/>
<path d="M385.309 125.253C382.709 125.253 380.603 123.147 380.603 120.547C380.603 117.947 382.709 115.84 385.309 115.84C387.909 115.84 390.016 117.947 390.016 120.547C390.016 123.147 387.896 125.253 385.309 125.253ZM385.309 117.853C383.816 117.853 382.603 119.067 382.603 120.56C382.603 122.053 383.816 123.267 385.309 123.267C386.803 123.267 388.016 122.053 388.016 120.56C388.016 119.067 386.789 117.853 385.309 117.853Z" fill="white"/>
<path d="M375.67 141.56C373.07 141.56 370.963 139.453 370.963 136.853C370.963 134.267 373.07 132.147 375.67 132.147C378.27 132.147 380.376 134.253 380.376 136.853C380.376 139.44 378.27 141.56 375.67 141.56ZM375.67 134.147C374.176 134.147 372.963 135.36 372.963 136.853C372.963 138.347 374.176 139.56 375.67 139.56C377.163 139.56 378.376 138.347 378.376 136.853C378.376 135.36 377.163 134.147 375.67 134.147Z" fill="white"/>
<path d="M394.79 141.56C392.19 141.56 390.083 139.453 390.083 136.853C390.083 134.267 392.19 132.147 394.79 132.147C397.39 132.147 399.496 134.253 399.496 136.853C399.483 139.44 397.376 141.56 394.79 141.56ZM394.79 134.147C393.296 134.147 392.083 135.36 392.083 136.853C392.083 138.347 393.296 139.56 394.79 139.56C396.283 139.56 397.496 138.347 397.496 136.853C397.483 135.36 396.283 134.147 394.79 134.147Z" fill="white"/>
<defs>
<filter id="filter0_d_643_6212" x="38" y="67" width="428" height="141" filterUnits="userSpaceOnUse" color-interpolation-filters="sRGB">
<feFlood flood-opacity="0" result="BackgroundImageFix"/>
<feColorMatrix in="SourceAlpha" type="matrix" values="0 0 0 0 0 0 0 0 0 0 0 0 0 0 0 0 0 0 127 0" result="hardAlpha"/>
<feMorphology radius="2" operator="dilate" in="SourceAlpha" result="effect1_dropShadow_643_6212"/>
<feOffset dy="7"/>
<feGaussianBlur stdDeviation="15"/>
<feComposite in2="hardAlpha" operator="out"/>
<feColorMatrix type="matrix" values="0 0 0 0 0 0 0 0 0 0 0 0 0 0 0 0 0 0 0.18 0"/>
<feBlend mode="normal" in2="BackgroundImageFix" result="effect1_dropShadow_643_6212"/>
<feBlend mode="normal" in="SourceGraphic" in2="effect1_dropShadow_643_6212" result="shape"/>
</filter>
</defs>
</svg>
