<svg width="40" height="40" viewBox="0 0 40 40" fill="none" xmlns="http://www.w3.org/2000/svg">
<path d="M10.917 37.9163C12.8003 37.9163 14.7837 37.4663 16.8337 36.5997C18.8337 35.7497 20.8503 34.583 22.817 33.1663C24.767 31.733 26.6503 30.133 28.4337 28.383C30.2003 26.5997 31.8003 24.7163 33.217 22.783C34.6503 20.783 35.8003 18.783 36.617 16.8497C37.4837 14.783 37.917 12.783 37.917 10.8997C37.917 9.59967 37.6837 8.36634 37.2337 7.21634C36.767 6.03301 36.017 4.93301 35.0003 3.98301C33.717 2.71634 32.2503 2.08301 30.6837 2.08301C30.0337 2.08301 29.367 2.23301 28.8003 2.49967C28.1503 2.79967 27.6003 3.24967 27.2003 3.84967L23.3337 9.29967C22.9837 9.78301 22.717 10.2497 22.5337 10.7163C22.317 11.2163 22.2003 11.7163 22.2003 12.1997C22.2003 12.833 22.3837 13.4497 22.7337 14.033C22.9837 14.483 23.367 14.9663 23.8503 15.4497L24.9837 16.633C24.967 16.683 24.9503 16.7163 24.9337 16.7497C24.7337 17.0997 24.3337 17.6997 23.567 18.5997C22.7503 19.533 21.9837 20.383 21.217 21.1663C20.2337 22.133 19.417 22.8997 18.6503 23.533C17.7003 24.333 17.0837 24.733 16.717 24.9163L16.7503 24.9997L15.5337 23.7997C15.017 23.283 14.517 22.8997 14.0337 22.6497C13.117 22.083 11.9503 21.983 10.7837 22.4663C10.3503 22.6497 9.88366 22.8997 9.38366 23.2497L3.85032 27.183C3.23366 27.5997 2.78366 28.133 2.51699 28.7663C2.26699 29.3997 2.15033 29.983 2.15033 30.5663C2.15033 31.3663 2.33366 32.1663 2.68366 32.9163C3.03366 33.6663 3.46699 34.3163 4.01699 34.9163C4.96699 35.9663 6.00032 36.7163 7.20032 37.1997C8.35032 37.6663 9.60032 37.9163 10.917 37.9163ZM30.6837 4.58301C31.6003 4.58301 32.4503 4.98301 33.267 5.78301C34.0337 6.49967 34.567 7.28301 34.9003 8.13301C35.2503 8.99967 35.417 9.91634 35.417 10.8997C35.417 12.4497 35.0503 14.133 34.317 15.8663C33.567 17.633 32.517 19.4663 31.1837 21.2997C29.8503 23.133 28.3337 24.9163 26.667 26.5997C25.0003 28.2497 23.2003 29.783 21.3503 31.133C19.5503 32.4497 17.7003 33.5163 15.867 34.283C13.017 35.4997 10.3503 35.783 8.15032 34.8663C7.30032 34.5163 6.55033 33.983 5.86699 33.2163C5.48366 32.7997 5.18365 32.3497 4.93365 31.8163C4.73365 31.3997 4.63366 30.9663 4.63366 30.533C4.63366 30.2663 4.68365 29.9997 4.81699 29.6997C4.86699 29.5997 4.96699 29.4163 5.28366 29.1997L10.817 25.2663C11.1503 25.033 11.4503 24.8663 11.7337 24.7497C12.1003 24.5997 12.2503 24.4497 12.817 24.7997C13.1503 24.9663 13.4503 25.2163 13.7837 25.5497L15.0503 26.7997C15.7003 27.433 16.7003 27.583 17.467 27.2997L17.917 27.0997C18.6003 26.733 19.4003 26.1663 20.2837 25.4163C21.0837 24.733 21.9503 23.933 23.0003 22.8997C23.817 22.0663 24.6337 21.183 25.4837 20.1997C26.267 19.283 26.8337 18.4997 27.1837 17.8497L27.3837 17.3497C27.4837 16.9663 27.517 16.7497 27.517 16.5163C27.517 15.9163 27.3003 15.383 26.8837 14.9663L25.6337 13.6663C25.3003 13.333 25.0503 13.0163 24.8837 12.733C24.7503 12.5163 24.7003 12.333 24.7003 12.1663C24.7003 12.033 24.7503 11.833 24.8337 11.633C24.9503 11.3663 25.1337 11.0663 25.367 10.7497L29.2337 5.28301C29.4003 5.04967 29.6003 4.88301 29.8503 4.76634C30.117 4.64967 30.4003 4.58301 30.6837 4.58301ZM16.7503 25.0163L17.017 26.1497L16.567 24.983C16.6503 24.9663 16.717 24.983 16.7503 25.0163Z" fill="#ED2027"/>
</svg>
