<svg width="40" height="40" viewBox="0 0 40 40" fill="none" xmlns="http://www.w3.org/2000/svg">
    <path d="M20 23.617a6.455 6.455 0 0 1-6.45-6.45c0-3.567 2.9-6.434 6.45-6.434 3.55 0 6.45 2.884 6.45 6.45 0 3.567-2.9 6.434-6.45 6.434zm0-10.384a3.958 3.958 0 0 0-3.95 3.95 3.948 3.948 0 0 0 3.95 3.95 3.948 3.948 0 0 0 3.95-3.95 3.958 3.958 0 0 0-3.95-3.95z" fill="#ED2027"/>
    <path d="M20 37.933a9.951 9.951 0 0 1-6.883-2.783c-4.917-4.734-10.35-12.284-8.3-21.267 1.85-8.15 8.966-11.8 15.183-11.8h.017c6.216 0 13.333 3.65 15.183 11.817 2.033 8.983-3.4 16.516-8.317 21.25A9.951 9.951 0 0 1 20 37.933zm0-33.35c-4.85 0-11.083 2.583-12.733 9.85-1.8 7.85 3.133 14.617 7.6 18.9a7.376 7.376 0 0 0 10.283 0c4.45-4.283 9.383-11.05 7.617-18.9C31.1 7.166 24.85 4.583 20 4.583z" fill="#ED2027"/>
</svg>
