<svg width="40" height="40" viewBox="0 0 40 40" fill="none" xmlns="http://www.w3.org/2000/svg">
<path d="M28.333 35.4163H11.6663C5.58301 35.4163 2.08301 31.9163 2.08301 25.833V14.1663C2.08301 8.08301 5.58301 4.58301 11.6663 4.58301H28.333C34.4163 4.58301 37.9163 8.08301 37.9163 14.1663V25.833C37.9163 31.9163 34.4163 35.4163 28.333 35.4163ZM11.6663 7.08301C6.89967 7.08301 4.58301 9.39967 4.58301 14.1663V25.833C4.58301 30.5997 6.89967 32.9163 11.6663 32.9163H28.333C33.0997 32.9163 35.4163 30.5997 35.4163 25.833V14.1663C35.4163 9.39967 33.0997 7.08301 28.333 7.08301H11.6663Z" fill="#ED2027"/>
<path d="M20 21.4499C18.6 21.4499 17.1833 21.0166 16.1 20.1333L10.8833 15.9666C10.35 15.5333 10.25 14.7499 10.6833 14.2166C11.1166 13.6833 11.9 13.5833 12.4333 14.0166L17.65 18.1833C18.9166 19.2 21.0666 19.2 22.3333 18.1833L27.55 14.0166C28.0833 13.5833 28.8833 13.6666 29.3 14.2166C29.7333 14.7499 29.65 15.55 29.1 15.9666L23.8833 20.1333C22.8166 21.0166 21.4 21.4499 20 21.4499Z" fill="#ED2027"/>
</svg>
