<svg xmlns="http://www.w3.org/2000/svg" width="19.99" height="20" viewBox="0 0 19.99 20">
    <path data-name="Path 4805" d="M351.19 571h-8.38c-3.64 0-5.81 2.17-5.81 5.81v8.37c0 3.65 2.17 5.82 5.81 5.82h8.37c3.64 0 5.81-2.17 5.81-5.81v-8.38c.01-3.64-2.16-5.81-5.8-5.81zm-.83 12.3a.753.753 0 0 1 0 1.06.748.748 0 0 1-1.06 0l-2.3-2.3-2.3 2.3a.748.748 0 0 1-1.06 0 .753.753 0 0 1 0-1.06l2.3-2.3-2.3-2.3a.75.75 0 0 1 1.06-1.06l2.3 2.3 2.3-2.3a.75.75 0 0 1 1.06 1.06l-2.3 2.3z" transform="translate(-337 -571)" style="fill:#e43c3c"/>
</svg>
