<svg xmlns="http://www.w3.org/2000/svg" width="19.99" height="20" viewBox="0 0 19.99 20">
    <path data-name="Path 4804" d="M351.19 391h-8.38c-3.64 0-5.81 2.17-5.81 5.81v8.37c0 3.65 2.17 5.82 5.81 5.82h8.37c3.64 0 5.81-2.17 5.81-5.81v-8.38c.01-3.64-2.16-5.81-5.8-5.81zm.59 7.7-5.67 5.67a.748.748 0 0 1-1.06 0l-2.83-2.83a.748.748 0 0 1-.174-.243.757.757 0 0 1-.065-.292.752.752 0 0 1 .764-.764.757.757 0 0 1 .292.065.747.747 0 0 1 .243.174l2.3 2.3 5.14-5.14a.75.75 0 0 1 1.06 1.06z" transform="translate(-337 -391)" style="fill:#24a010"/>
</svg>
